<svg width="91" height="90" viewBox="0 0 91 90" fill="none" xmlns="http://www.w3.org/2000/svg">
<path d="M41.6738 10.1567C43.4228 7.25056 47.6361 7.25056 49.3851 10.1567L58.1242 24.6783C58.7526 25.7223 59.7774 26.4669 60.9645 26.7419L77.4759 30.5659C80.7803 31.3312 82.0823 35.3383 79.8588 37.8998L68.7486 50.6986C67.9498 51.6188 67.5583 52.8236 67.6637 54.0376L69.1291 70.9225C69.4223 74.3017 66.0137 76.7782 62.8905 75.4551L47.2848 68.8437C46.1628 68.3683 44.896 68.3683 43.774 68.8437L28.1683 75.4551C25.0452 76.7782 21.6365 74.3017 21.9298 70.9225L23.3952 54.0376C23.5005 52.8236 23.1091 51.6188 22.3103 50.6986L11.2001 37.8998C8.97657 35.3383 10.2786 31.3312 13.583 30.5659L30.0943 26.7419C31.2814 26.4669 32.3063 25.7223 32.9346 24.6783L41.6738 10.1567Z" stroke="#2B3F6C" stroke-width="5"/>
<path d="M41.6738 10.1567C43.4228 7.25056 47.6361 7.25056 49.3851 10.1567L58.1242 24.6783C58.7526 25.7223 59.7774 26.4669 60.9645 26.7419L77.4759 30.5659C80.7803 31.3312 82.0823 35.3383 79.8588 37.8998L68.7486 50.6986C67.9498 51.6188 67.5583 52.8236 67.6637 54.0376L69.1291 70.9225C69.4223 74.3017 66.0137 76.7782 62.8905 75.4551L47.2848 68.8437C46.1628 68.3683 44.896 68.3683 43.774 68.8437L28.1683 75.4551C25.0452 76.7782 21.6365 74.3017 21.9298 70.9225L23.3952 54.0376C23.5005 52.8236 23.1091 51.6188 22.3103 50.6986L11.2001 37.8998C8.97657 35.3383 10.2786 31.3312 13.583 30.5659L30.0943 26.7419C31.2814 26.4669 32.3063 25.7223 32.9346 24.6783L41.6738 10.1567Z" stroke="url(#paint0_linear_21_303)" stroke-width="5"/>
<defs>
<linearGradient id="paint0_linear_21_303" x1="4.27942" y1="45" x2="86.7794" y2="45" gradientUnits="userSpaceOnUse">
<stop stop-color="white"/>
<stop offset="1" stop-color="#999999"/>
</linearGradient>
</defs>
</svg>
