<svg width="90" height="90" viewBox="0 0 90 90" fill="none" xmlns="http://www.w3.org/2000/svg">
<path fill-rule="evenodd" clip-rule="evenodd" d="M22.5 12.5C15.9416 12.5 10.625 17.8166 10.625 24.375V31.875C10.625 38.4334 15.9416 43.75 22.5 43.75H30C36.5584 43.75 41.875 38.4334 41.875 31.875V24.375C41.875 17.8166 36.5584 12.5 30 12.5H22.5ZM15.625 24.375C15.625 20.578 18.703 17.5 22.5 17.5H30C33.797 17.5 36.875 20.578 36.875 24.375V31.875C36.875 35.672 33.797 38.75 30 38.75H22.5C18.703 38.75 15.625 35.672 15.625 31.875V24.375ZM22.5 50C15.9416 50 10.625 55.3166 10.625 61.875V69.375C10.625 75.9334 15.9416 81.25 22.5 81.25H30C36.5584 81.25 41.875 75.9334 41.875 69.375V61.875C41.875 55.3166 36.5584 50 30 50H22.5ZM15.625 61.875C15.625 58.078 18.703 55 22.5 55H30C33.797 55 36.875 58.078 36.875 61.875V69.375C36.875 73.172 33.797 76.25 30 76.25H22.5C18.703 76.25 15.625 73.172 15.625 69.375V61.875ZM48.125 24.375C48.125 17.8166 53.4416 12.5 60 12.5H67.5C74.0584 12.5 79.375 17.8166 79.375 24.375V31.875C79.375 38.4334 74.0584 43.75 67.5 43.75H60C53.4416 43.75 48.125 38.4334 48.125 31.875V24.375ZM60 17.5C56.203 17.5 53.125 20.578 53.125 24.375V31.875C53.125 35.672 56.203 38.75 60 38.75H67.5C71.297 38.75 74.375 35.672 74.375 31.875V24.375C74.375 20.578 71.297 17.5 67.5 17.5H60ZM60 50C53.4416 50 48.125 55.3166 48.125 61.875V69.375C48.125 75.9334 53.4416 81.25 60 81.25H67.5C74.0584 81.25 79.375 75.9334 79.375 69.375V61.875C79.375 55.3166 74.0584 50 67.5 50H60ZM53.125 61.875C53.125 58.078 56.203 55 60 55H67.5C71.297 55 74.375 58.078 74.375 61.875V69.375C74.375 73.172 71.297 76.25 67.5 76.25H60C56.203 76.25 53.125 73.172 53.125 69.375V61.875Z" fill="white"/>
<path fill-rule="evenodd" clip-rule="evenodd" d="M22.5 12.5C15.9416 12.5 10.625 17.8166 10.625 24.375V31.875C10.625 38.4334 15.9416 43.75 22.5 43.75H30C36.5584 43.75 41.875 38.4334 41.875 31.875V24.375C41.875 17.8166 36.5584 12.5 30 12.5H22.5ZM15.625 24.375C15.625 20.578 18.703 17.5 22.5 17.5H30C33.797 17.5 36.875 20.578 36.875 24.375V31.875C36.875 35.672 33.797 38.75 30 38.75H22.5C18.703 38.75 15.625 35.672 15.625 31.875V24.375ZM22.5 50C15.9416 50 10.625 55.3166 10.625 61.875V69.375C10.625 75.9334 15.9416 81.25 22.5 81.25H30C36.5584 81.25 41.875 75.9334 41.875 69.375V61.875C41.875 55.3166 36.5584 50 30 50H22.5ZM15.625 61.875C15.625 58.078 18.703 55 22.5 55H30C33.797 55 36.875 58.078 36.875 61.875V69.375C36.875 73.172 33.797 76.25 30 76.25H22.5C18.703 76.25 15.625 73.172 15.625 69.375V61.875ZM48.125 24.375C48.125 17.8166 53.4416 12.5 60 12.5H67.5C74.0584 12.5 79.375 17.8166 79.375 24.375V31.875C79.375 38.4334 74.0584 43.75 67.5 43.75H60C53.4416 43.75 48.125 38.4334 48.125 31.875V24.375ZM60 17.5C56.203 17.5 53.125 20.578 53.125 24.375V31.875C53.125 35.672 56.203 38.75 60 38.75H67.5C71.297 38.75 74.375 35.672 74.375 31.875V24.375C74.375 20.578 71.297 17.5 67.5 17.5H60ZM60 50C53.4416 50 48.125 55.3166 48.125 61.875V69.375C48.125 75.9334 53.4416 81.25 60 81.25H67.5C74.0584 81.25 79.375 75.9334 79.375 69.375V61.875C79.375 55.3166 74.0584 50 67.5 50H60ZM53.125 61.875C53.125 58.078 56.203 55 60 55H67.5C71.297 55 74.375 58.078 74.375 61.875V69.375C74.375 73.172 71.297 76.25 67.5 76.25H60C56.203 76.25 53.125 73.172 53.125 69.375V61.875Z" fill="url(#paint0_linear_21_246)"/>
<defs>
<linearGradient id="paint0_linear_21_246" x1="10.3125" y1="46.875" x2="79.6875" y2="46.875" gradientUnits="userSpaceOnUse">
<stop stop-color="white"/>
<stop offset="1" stop-color="#999999"/>
</linearGradient>
</defs>
</svg>
