<svg width="90" height="90" viewBox="0 0 90 90" fill="none" xmlns="http://www.w3.org/2000/svg">
<path d="M68.6387 48.0331L66.8057 46.3331L68.6387 48.0331ZM42.1222 21.5166L43.8222 23.3496L42.1222 21.5166ZM81.2288 16.021L83.7077 16.3452L81.2288 16.021ZM74.1343 8.92649L74.4585 11.4054L74.1343 8.92649ZM24.3543 47.4395L26.599 48.54L24.3543 47.4395ZM42.7158 65.801L41.6153 63.5563L42.7158 65.801ZM30.6318 38.3103C29.6555 37.3339 28.0726 37.3339 27.0963 38.3103C26.12 39.2866 26.12 40.8695 27.0963 41.8458L30.6318 38.3103ZM48.3095 63.059C49.2858 64.0353 50.8687 64.0353 51.845 63.059C52.8213 62.0827 52.8213 60.4998 51.845 59.5235L48.3095 63.059ZM24.0027 69.6881C24.979 68.7118 24.979 67.1289 24.0027 66.1526C23.0264 65.1763 21.4435 65.1763 20.4671 66.1526L24.0027 69.6881ZM9.86055 76.7592C8.88423 77.7355 8.88423 79.3184 9.86055 80.2947C10.8369 81.271 12.4198 81.271 13.3961 80.2947L9.86055 76.7592ZM16.0477 61.7332C17.024 60.7569 17.024 59.1739 16.0477 58.1976C15.0714 57.2213 13.4885 57.2213 12.5122 58.1976L16.0477 61.7332ZM7.20889 63.5009C6.23258 64.4772 6.23258 66.0602 7.20889 67.0365C8.18521 68.0128 9.76812 68.0128 10.7444 67.0365L7.20889 63.5009ZM31.9576 77.6431C32.9339 76.6668 32.9339 75.0839 31.9576 74.1075C30.9813 73.1312 29.3984 73.1312 28.4221 74.1075L31.9576 77.6431ZM23.1188 79.4108C22.1425 80.3872 22.1425 81.9701 23.1188 82.9464C24.0951 83.9227 25.678 83.9227 26.6543 82.9464L23.1188 79.4108ZM39.7358 79.0573L42.2107 78.7037L39.7358 79.0573ZM59.0929 66.0642L61.5677 65.7106L59.0929 66.0642ZM11.0979 50.4195L11.4515 47.9447L11.4515 47.9447L11.0979 50.4195ZM24.091 31.0625L23.7374 33.5374L23.7374 33.5374L24.091 31.0625ZM36.3429 62.5831L27.5721 53.8124L24.0366 57.348L32.8073 66.1187L36.3429 62.5831ZM66.8057 46.3331C59.6622 54.0352 48.0861 60.3839 41.6153 63.5563L43.8163 68.0458C50.3388 64.8481 62.6515 58.1649 70.4717 49.7332L66.8057 46.3331ZM26.599 48.54C29.7714 42.0691 36.1201 30.4931 43.8222 23.3496L40.4221 19.6836C31.9904 27.5038 25.3072 39.8164 22.1095 46.339L26.599 48.54ZM78.7499 15.6968C77.6094 24.4167 74.5737 37.9576 66.8057 46.3331L70.4717 49.7332C79.3833 40.1246 82.5517 25.184 83.7077 16.3452L78.7499 15.6968ZM43.8222 23.3496C52.1977 15.5816 65.7386 12.5458 74.4585 11.4054L73.8101 6.4476C64.9713 7.60361 50.0307 10.772 40.4221 19.6836L43.8222 23.3496ZM83.7077 16.3452C84.4726 10.4967 79.6586 5.68269 73.8101 6.4476L74.4585 11.4054C77.0507 11.0664 79.0889 13.1046 78.7499 15.6968L83.7077 16.3452ZM27.5721 53.8124C26.1218 52.3621 25.7554 50.2609 26.599 48.54L22.1095 46.339C20.2663 50.0989 21.1709 54.4822 24.0366 57.348L27.5721 53.8124ZM32.8073 66.1187C35.6731 68.9844 40.0564 69.889 43.8163 68.0458L41.6153 63.5563C39.8944 64.3999 37.7932 64.0335 36.3429 62.5831L32.8073 66.1187ZM27.0963 41.8458L48.3095 63.059L51.845 59.5235L30.6318 38.3103L27.0963 41.8458ZM20.4671 66.1526L9.86055 76.7592L13.3961 80.2947L24.0027 69.6881L20.4671 66.1526ZM12.5122 58.1976L7.20889 63.5009L10.7444 67.0365L16.0477 61.7332L12.5122 58.1976ZM28.4221 74.1075L23.1188 79.4108L26.6543 82.9464L31.9576 77.6431L28.4221 74.1075ZM49.6353 26.3778C45.7301 30.2831 45.7301 36.6147 49.6353 40.52L53.1708 36.9844C51.2182 35.0318 51.2182 31.866 53.1708 29.9134L49.6353 26.3778ZM49.6353 40.52C53.5405 44.4252 59.8722 44.4252 63.7774 40.52L60.2419 36.9844C58.2893 38.9371 55.1235 38.9371 53.1708 36.9844L49.6353 40.52ZM63.7774 40.52C67.6827 36.6147 67.6827 30.2831 63.7774 26.3778L60.2419 29.9134C62.1945 31.866 62.1945 35.0318 60.2419 36.9844L63.7774 40.52ZM63.7774 26.3778C59.8722 22.4726 53.5405 22.4726 49.6353 26.3778L53.1708 29.9134C55.1235 27.9607 58.2893 27.9607 60.2419 29.9134L63.7774 26.3778ZM56.2644 67.4784L44.332 79.4108L47.8675 82.9464L59.8 71.0139L56.2644 67.4784ZM42.2107 78.7037L40.6197 67.5668L35.6699 68.2739L37.2609 79.4108L42.2107 78.7037ZM55.5573 58.9931L56.618 66.4178L61.5677 65.7106L60.5071 58.286L55.5573 58.9931ZM44.332 79.4108C43.6036 80.1392 42.3564 79.7234 42.2107 78.7037L37.2609 79.4108C37.9893 84.5094 44.2257 86.5882 47.8675 82.9464L44.332 79.4108ZM59.8 71.0139C61.191 69.6229 61.8459 67.6581 61.5677 65.7106L56.618 66.4178C56.6736 66.8072 56.5426 67.2002 56.2644 67.4784L59.8 71.0139ZM19.1412 30.3554L7.20882 42.2878L10.7443 45.8234L22.6768 33.8909L19.1412 30.3554ZM10.7443 52.8944L21.8813 54.4854L22.5884 49.5357L11.4515 47.9447L10.7443 52.8944ZM31.8692 29.6483L24.4445 28.5876L23.7374 33.5374L31.1621 34.598L31.8692 29.6483ZM7.20882 42.2878C3.56701 45.9296 5.64583 52.1661 10.7444 52.8944L11.4515 47.9447C10.4318 47.799 10.016 46.5517 10.7443 45.8234L7.20882 42.2878ZM22.6768 33.8909C22.955 33.6127 23.3479 33.4817 23.7374 33.5374L24.4445 28.5876C22.4971 28.3094 20.5323 28.9643 19.1412 30.3554L22.6768 33.8909Z" fill="#2B3F6C"/>
<path d="M68.6387 48.0331L66.8057 46.3331L68.6387 48.0331ZM42.1222 21.5166L43.8222 23.3496L42.1222 21.5166ZM81.2288 16.021L83.7077 16.3452L81.2288 16.021ZM74.1343 8.92649L74.4585 11.4054L74.1343 8.92649ZM24.3543 47.4395L26.599 48.54L24.3543 47.4395ZM42.7158 65.801L41.6153 63.5563L42.7158 65.801ZM30.6318 38.3103C29.6555 37.3339 28.0726 37.3339 27.0963 38.3103C26.12 39.2866 26.12 40.8695 27.0963 41.8458L30.6318 38.3103ZM48.3095 63.059C49.2858 64.0353 50.8687 64.0353 51.845 63.059C52.8213 62.0827 52.8213 60.4998 51.845 59.5235L48.3095 63.059ZM24.0027 69.6881C24.979 68.7118 24.979 67.1289 24.0027 66.1526C23.0264 65.1763 21.4435 65.1763 20.4671 66.1526L24.0027 69.6881ZM9.86055 76.7592C8.88423 77.7355 8.88423 79.3184 9.86055 80.2947C10.8369 81.271 12.4198 81.271 13.3961 80.2947L9.86055 76.7592ZM16.0477 61.7332C17.024 60.7569 17.024 59.1739 16.0477 58.1976C15.0714 57.2213 13.4885 57.2213 12.5122 58.1976L16.0477 61.7332ZM7.20889 63.5009C6.23258 64.4772 6.23258 66.0602 7.20889 67.0365C8.18521 68.0128 9.76812 68.0128 10.7444 67.0365L7.20889 63.5009ZM31.9576 77.6431C32.9339 76.6668 32.9339 75.0839 31.9576 74.1075C30.9813 73.1312 29.3984 73.1312 28.4221 74.1075L31.9576 77.6431ZM23.1188 79.4108C22.1425 80.3872 22.1425 81.9701 23.1188 82.9464C24.0951 83.9227 25.678 83.9227 26.6543 82.9464L23.1188 79.4108ZM39.7358 79.0573L42.2107 78.7037L39.7358 79.0573ZM59.0929 66.0642L61.5677 65.7106L59.0929 66.0642ZM11.0979 50.4195L11.4515 47.9447L11.4515 47.9447L11.0979 50.4195ZM24.091 31.0625L23.7374 33.5374L23.7374 33.5374L24.091 31.0625ZM36.3429 62.5831L27.5721 53.8124L24.0366 57.348L32.8073 66.1187L36.3429 62.5831ZM66.8057 46.3331C59.6622 54.0352 48.0861 60.3839 41.6153 63.5563L43.8163 68.0458C50.3388 64.8481 62.6515 58.1649 70.4717 49.7332L66.8057 46.3331ZM26.599 48.54C29.7714 42.0691 36.1201 30.4931 43.8222 23.3496L40.4221 19.6836C31.9904 27.5038 25.3072 39.8164 22.1095 46.339L26.599 48.54ZM78.7499 15.6968C77.6094 24.4167 74.5737 37.9576 66.8057 46.3331L70.4717 49.7332C79.3833 40.1246 82.5517 25.184 83.7077 16.3452L78.7499 15.6968ZM43.8222 23.3496C52.1977 15.5816 65.7386 12.5458 74.4585 11.4054L73.8101 6.4476C64.9713 7.60361 50.0307 10.772 40.4221 19.6836L43.8222 23.3496ZM83.7077 16.3452C84.4726 10.4967 79.6586 5.68269 73.8101 6.4476L74.4585 11.4054C77.0507 11.0664 79.0889 13.1046 78.7499 15.6968L83.7077 16.3452ZM27.5721 53.8124C26.1218 52.3621 25.7554 50.2609 26.599 48.54L22.1095 46.339C20.2663 50.0989 21.1709 54.4822 24.0366 57.348L27.5721 53.8124ZM32.8073 66.1187C35.6731 68.9844 40.0564 69.889 43.8163 68.0458L41.6153 63.5563C39.8944 64.3999 37.7932 64.0335 36.3429 62.5831L32.8073 66.1187ZM27.0963 41.8458L48.3095 63.059L51.845 59.5235L30.6318 38.3103L27.0963 41.8458ZM20.4671 66.1526L9.86055 76.7592L13.3961 80.2947L24.0027 69.6881L20.4671 66.1526ZM12.5122 58.1976L7.20889 63.5009L10.7444 67.0365L16.0477 61.7332L12.5122 58.1976ZM28.4221 74.1075L23.1188 79.4108L26.6543 82.9464L31.9576 77.6431L28.4221 74.1075ZM49.6353 26.3778C45.7301 30.2831 45.7301 36.6147 49.6353 40.52L53.1708 36.9844C51.2182 35.0318 51.2182 31.866 53.1708 29.9134L49.6353 26.3778ZM49.6353 40.52C53.5405 44.4252 59.8722 44.4252 63.7774 40.52L60.2419 36.9844C58.2893 38.9371 55.1235 38.9371 53.1708 36.9844L49.6353 40.52ZM63.7774 40.52C67.6827 36.6147 67.6827 30.2831 63.7774 26.3778L60.2419 29.9134C62.1945 31.866 62.1945 35.0318 60.2419 36.9844L63.7774 40.52ZM63.7774 26.3778C59.8722 22.4726 53.5405 22.4726 49.6353 26.3778L53.1708 29.9134C55.1235 27.9607 58.2893 27.9607 60.2419 29.9134L63.7774 26.3778ZM56.2644 67.4784L44.332 79.4108L47.8675 82.9464L59.8 71.0139L56.2644 67.4784ZM42.2107 78.7037L40.6197 67.5668L35.6699 68.2739L37.2609 79.4108L42.2107 78.7037ZM55.5573 58.9931L56.618 66.4178L61.5677 65.7106L60.5071 58.286L55.5573 58.9931ZM44.332 79.4108C43.6036 80.1392 42.3564 79.7234 42.2107 78.7037L37.2609 79.4108C37.9893 84.5094 44.2257 86.5882 47.8675 82.9464L44.332 79.4108ZM59.8 71.0139C61.191 69.6229 61.8459 67.6581 61.5677 65.7106L56.618 66.4178C56.6736 66.8072 56.5426 67.2002 56.2644 67.4784L59.8 71.0139ZM19.1412 30.3554L7.20882 42.2878L10.7443 45.8234L22.6768 33.8909L19.1412 30.3554ZM10.7443 52.8944L21.8813 54.4854L22.5884 49.5357L11.4515 47.9447L10.7443 52.8944ZM31.8692 29.6483L24.4445 28.5876L23.7374 33.5374L31.1621 34.598L31.8692 29.6483ZM7.20882 42.2878C3.56701 45.9296 5.64583 52.1661 10.7444 52.8944L11.4515 47.9447C10.4318 47.799 10.016 46.5517 10.7443 45.8234L7.20882 42.2878ZM22.6768 33.8909C22.955 33.6127 23.3479 33.4817 23.7374 33.5374L24.4445 28.5876C22.4971 28.3094 20.5323 28.9643 19.1412 30.3554L22.6768 33.8909Z" fill="url(#paint0_linear_21_325)"/>
<defs>
<linearGradient id="paint0_linear_21_325" x1="26.9882" y1="26.044" x2="64.1113" y2="63.1671" gradientUnits="userSpaceOnUse">
<stop stop-color="white"/>
<stop offset="1" stop-color="#999999"/>
</linearGradient>
</defs>
</svg>
