<svg width="90" height="90" viewBox="0 0 90 90" fill="none" xmlns="http://www.w3.org/2000/svg">
<path fill-rule="evenodd" clip-rule="evenodd" d="M56.064 31.516C56.064 25.8462 51.4678 21.25 45.798 21.25C40.1283 21.25 35.5321 25.8462 35.5321 31.516C35.5321 37.1857 40.1283 41.7819 45.798 41.7819C51.4678 41.7819 56.064 37.1857 56.064 31.516ZM45.798 16.25C54.2292 16.25 61.064 23.0848 61.064 31.516C61.064 39.9471 54.2292 46.7819 45.798 46.7819C37.3669 46.7819 30.5321 39.9471 30.5321 31.516C30.5321 23.0848 37.3669 16.25 45.798 16.25ZM28.6105 59.4584C39.7251 55.4889 51.8711 55.4889 62.9857 59.4584C64.5766 60.0266 65.6385 61.5335 65.6385 63.2228V67.4212C65.6385 69.6895 63.6295 71.4319 61.384 71.1112L60.1331 70.9325C50.6247 69.5741 40.9715 69.5741 31.463 70.9325L30.2122 71.1112C27.9667 71.4319 25.9577 69.6895 25.9577 67.4212V63.2228C25.9577 61.5335 27.0196 60.0266 28.6105 59.4584ZM64.6674 54.7497C52.4653 50.3918 39.1309 50.3918 26.9288 54.7497C23.348 56.0285 20.9577 59.4204 20.9577 63.2228V67.4212C20.9577 72.7323 25.6616 76.812 30.9193 76.0609L32.1701 75.8822C41.2096 74.5909 50.3866 74.5909 59.426 75.8822L60.6768 76.0609C65.9345 76.812 70.6385 72.7323 70.6385 67.4212V63.2228C70.6385 59.4204 68.2482 56.0285 64.6674 54.7497ZM64.9467 27.0745C69.1056 27.0745 72.4771 30.446 72.4771 34.6049C72.4771 38.7639 69.1056 42.1353 64.9467 42.1353C63.566 42.1353 62.4467 43.2546 62.4467 44.6353C62.4467 46.016 63.566 47.1353 64.9467 47.1353C71.8671 47.1353 77.4771 41.5253 77.4771 34.6049C77.4771 27.6846 71.8671 22.0745 64.9467 22.0745C63.566 22.0745 62.4467 23.1938 62.4467 24.5745C62.4467 25.9552 63.566 27.0745 64.9467 27.0745ZM73.399 50.5632C72.0433 50.3017 70.7323 51.1886 70.4707 52.5444C70.2091 53.9001 71.0961 55.2111 72.4518 55.4727C74.4191 55.8523 76.3646 56.3825 78.2711 57.0633C79.3078 57.4336 79.9999 58.4157 79.9999 59.5166V62.8153C79.9999 64.2716 78.7101 65.3902 77.2685 65.1842L76.2857 65.0438C74.9189 64.8486 73.6526 65.7983 73.4573 67.1652C73.262 68.532 74.2118 69.7983 75.5786 69.9936L76.5614 70.134C81.0152 70.7702 84.9999 67.3143 84.9999 62.8153V59.5166C84.9999 56.3026 82.9795 53.4356 79.9528 52.3546C77.8058 51.5879 75.6147 50.9907 73.399 50.5632ZM25.0532 27.0745C20.8943 27.0745 17.5228 30.446 17.5228 34.6049C17.5228 38.7639 20.8943 42.1353 25.0532 42.1353C26.4339 42.1353 27.5532 43.2546 27.5532 44.6353C27.5532 46.016 26.4339 47.1353 25.0532 47.1353C18.1329 47.1353 12.5228 41.5253 12.5228 34.6049C12.5228 27.6846 18.1329 22.0745 25.0532 22.0745C26.4339 22.0745 27.5532 23.1938 27.5532 24.5745C27.5532 25.9552 26.4339 27.0745 25.0532 27.0745ZM16.6009 50.5632C17.9566 50.3017 19.2677 51.1886 19.5292 52.5444C19.7908 53.9001 18.9038 55.2111 17.5481 55.4727C15.5808 55.8523 13.6353 56.3825 11.7289 57.0633C10.6921 57.4336 10 58.4157 10 59.5166V62.8153C10 64.2716 11.2898 65.3902 12.7314 65.1842L13.7142 65.0438C15.081 64.8486 16.3474 65.7983 16.5426 67.1652C16.7379 68.532 15.7882 69.7983 14.4213 69.9936L13.4385 70.134C8.98476 70.7702 5.00003 67.3143 5.00003 62.8153V59.5166C5.00003 56.3026 7.02045 53.4356 10.0472 52.3546C12.1941 51.5879 14.3852 50.9907 16.6009 50.5632Z" fill="#2B3F6C"/>
<path fill-rule="evenodd" clip-rule="evenodd" d="M56.064 31.516C56.064 25.8462 51.4678 21.25 45.798 21.25C40.1283 21.25 35.5321 25.8462 35.5321 31.516C35.5321 37.1857 40.1283 41.7819 45.798 41.7819C51.4678 41.7819 56.064 37.1857 56.064 31.516ZM45.798 16.25C54.2292 16.25 61.064 23.0848 61.064 31.516C61.064 39.9471 54.2292 46.7819 45.798 46.7819C37.3669 46.7819 30.5321 39.9471 30.5321 31.516C30.5321 23.0848 37.3669 16.25 45.798 16.25ZM28.6105 59.4584C39.7251 55.4889 51.8711 55.4889 62.9857 59.4584C64.5766 60.0266 65.6385 61.5335 65.6385 63.2228V67.4212C65.6385 69.6895 63.6295 71.4319 61.384 71.1112L60.1331 70.9325C50.6247 69.5741 40.9715 69.5741 31.463 70.9325L30.2122 71.1112C27.9667 71.4319 25.9577 69.6895 25.9577 67.4212V63.2228C25.9577 61.5335 27.0196 60.0266 28.6105 59.4584ZM64.6674 54.7497C52.4653 50.3918 39.1309 50.3918 26.9288 54.7497C23.348 56.0285 20.9577 59.4204 20.9577 63.2228V67.4212C20.9577 72.7323 25.6616 76.812 30.9193 76.0609L32.1701 75.8822C41.2096 74.5909 50.3866 74.5909 59.426 75.8822L60.6768 76.0609C65.9345 76.812 70.6385 72.7323 70.6385 67.4212V63.2228C70.6385 59.4204 68.2482 56.0285 64.6674 54.7497ZM64.9467 27.0745C69.1056 27.0745 72.4771 30.446 72.4771 34.6049C72.4771 38.7639 69.1056 42.1353 64.9467 42.1353C63.566 42.1353 62.4467 43.2546 62.4467 44.6353C62.4467 46.016 63.566 47.1353 64.9467 47.1353C71.8671 47.1353 77.4771 41.5253 77.4771 34.6049C77.4771 27.6846 71.8671 22.0745 64.9467 22.0745C63.566 22.0745 62.4467 23.1938 62.4467 24.5745C62.4467 25.9552 63.566 27.0745 64.9467 27.0745ZM73.399 50.5632C72.0433 50.3017 70.7323 51.1886 70.4707 52.5444C70.2091 53.9001 71.0961 55.2111 72.4518 55.4727C74.4191 55.8523 76.3646 56.3825 78.2711 57.0633C79.3078 57.4336 79.9999 58.4157 79.9999 59.5166V62.8153C79.9999 64.2716 78.7101 65.3902 77.2685 65.1842L76.2857 65.0438C74.9189 64.8486 73.6526 65.7983 73.4573 67.1652C73.262 68.532 74.2118 69.7983 75.5786 69.9936L76.5614 70.134C81.0152 70.7702 84.9999 67.3143 84.9999 62.8153V59.5166C84.9999 56.3026 82.9795 53.4356 79.9528 52.3546C77.8058 51.5879 75.6147 50.9907 73.399 50.5632ZM25.0532 27.0745C20.8943 27.0745 17.5228 30.446 17.5228 34.6049C17.5228 38.7639 20.8943 42.1353 25.0532 42.1353C26.4339 42.1353 27.5532 43.2546 27.5532 44.6353C27.5532 46.016 26.4339 47.1353 25.0532 47.1353C18.1329 47.1353 12.5228 41.5253 12.5228 34.6049C12.5228 27.6846 18.1329 22.0745 25.0532 22.0745C26.4339 22.0745 27.5532 23.1938 27.5532 24.5745C27.5532 25.9552 26.4339 27.0745 25.0532 27.0745ZM16.6009 50.5632C17.9566 50.3017 19.2677 51.1886 19.5292 52.5444C19.7908 53.9001 18.9038 55.2111 17.5481 55.4727C15.5808 55.8523 13.6353 56.3825 11.7289 57.0633C10.6921 57.4336 10 58.4157 10 59.5166V62.8153C10 64.2716 11.2898 65.3902 12.7314 65.1842L13.7142 65.0438C15.081 64.8486 16.3474 65.7983 16.5426 67.1652C16.7379 68.532 15.7882 69.7983 14.4213 69.9936L13.4385 70.134C8.98476 70.7702 5.00003 67.3143 5.00003 62.8153V59.5166C5.00003 56.3026 7.02045 53.4356 10.0472 52.3546C12.1941 51.5879 14.3852 50.9907 16.6009 50.5632Z" fill="url(#paint0_linear_21_314)"/>
<defs>
<linearGradient id="paint0_linear_21_314" x1="4.68753" y1="46.2002" x2="85.3124" y2="46.2002" gradientUnits="userSpaceOnUse">
<stop stop-color="white"/>
<stop offset="1" stop-color="#999999"/>
</linearGradient>
</defs>
</svg>
