<svg width="303" height="43" viewBox="0 0 303 43" fill="none" xmlns="http://www.w3.org/2000/svg">
<path d="M89.955 34L79.105 9.5H81.905L92.055 32.565H90.515L100.735 9.5H103.36L92.51 34H89.955ZM112.794 34.175C110.881 34.175 109.201 33.7783 107.754 32.985C106.308 32.1683 105.176 31.06 104.359 29.66C103.543 28.2367 103.134 26.615 103.134 24.795C103.134 22.975 103.519 21.365 104.289 19.965C105.083 18.565 106.156 17.4683 107.509 16.675C108.886 15.8583 110.426 15.45 112.129 15.45C113.856 15.45 115.384 15.8467 116.714 16.64C118.068 17.41 119.129 18.5067 119.899 19.93C120.669 21.33 121.054 22.9517 121.054 24.795C121.054 24.9117 121.043 25.04 121.019 25.18C121.019 25.2967 121.019 25.425 121.019 25.565L105.024 25.565V23.71L119.689 23.71L118.709 24.445C118.709 23.115 118.418 21.9367 117.834 20.91C117.274 19.86 116.504 19.0433 115.524 18.46C114.544 17.8767 113.413 17.585 112.129 17.585C110.869 17.585 109.738 17.8767 108.734 18.46C107.731 19.0433 106.949 19.86 106.389 20.91C105.829 21.96 105.549 23.1617 105.549 24.515V24.9C105.549 26.3 105.853 27.5367 106.459 28.61C107.089 29.66 107.953 30.4883 109.049 31.095C110.169 31.6783 111.441 31.97 112.864 31.97C113.984 31.97 115.023 31.7717 115.979 31.375C116.959 30.9783 117.799 30.3717 118.499 29.555L119.899 31.165C119.083 32.145 118.056 32.8917 116.819 33.405C115.606 33.9183 114.264 34.175 112.794 34.175ZM126.112 34V8.03H128.597V34H126.112ZM143.002 34.175C141.229 34.175 139.63 33.7783 138.207 32.985C136.807 32.1683 135.699 31.06 134.882 29.66C134.065 28.2367 133.657 26.615 133.657 24.795C133.657 22.9517 134.065 21.33 134.882 19.93C135.699 18.53 136.807 17.4333 138.207 16.64C139.607 15.8467 141.205 15.45 143.002 15.45C144.822 15.45 146.432 15.8467 147.832 16.64C149.255 17.4333 150.364 18.53 151.157 19.93C151.974 21.33 152.382 22.9517 152.382 24.795C152.382 26.615 151.974 28.2367 151.157 29.66C150.364 31.06 149.255 32.1683 147.832 32.985C146.409 33.7783 144.799 34.175 143.002 34.175ZM143.002 31.97C144.332 31.97 145.51 31.6783 146.537 31.095C147.564 30.4883 148.369 29.6483 148.952 28.575C149.559 27.4783 149.862 26.2183 149.862 24.795C149.862 23.3483 149.559 22.0883 148.952 21.015C148.369 19.9417 147.564 19.1133 146.537 18.53C145.51 17.9233 144.344 17.62 143.037 17.62C141.73 17.62 140.564 17.9233 139.537 18.53C138.51 19.1133 137.694 19.9417 137.087 21.015C136.48 22.0883 136.177 23.3483 136.177 24.795C136.177 26.2183 136.48 27.4783 137.087 28.575C137.694 29.6483 138.51 30.4883 139.537 31.095C140.564 31.6783 141.719 31.97 143.002 31.97ZM160.29 21.365H173.24V23.605H160.29V21.365ZM160.57 34H157.98V9.5L174.78 9.5V11.74L160.57 11.74V34ZM179.262 34V15.625H181.642V20.63L181.397 19.755C181.91 18.355 182.774 17.2933 183.987 16.57C185.2 15.8233 186.705 15.45 188.502 15.45V17.865C188.409 17.865 188.315 17.865 188.222 17.865C188.129 17.8417 188.035 17.83 187.942 17.83C186.005 17.83 184.489 18.425 183.392 19.615C182.295 20.7817 181.747 22.45 181.747 24.62V34H179.262ZM200.67 34.175C198.757 34.175 197.077 33.7783 195.63 32.985C194.184 32.1683 193.052 31.06 192.235 29.66C191.419 28.2367 191.01 26.615 191.01 24.795C191.01 22.975 191.395 21.365 192.165 19.965C192.959 18.565 194.032 17.4683 195.385 16.675C196.762 15.8583 198.302 15.45 200.005 15.45C201.732 15.45 203.26 15.8467 204.59 16.64C205.944 17.41 207.005 18.5067 207.775 19.93C208.545 21.33 208.93 22.9517 208.93 24.795C208.93 24.9117 208.919 25.04 208.895 25.18C208.895 25.2967 208.895 25.425 208.895 25.565L192.9 25.565V23.71L207.565 23.71L206.585 24.445C206.585 23.115 206.294 21.9367 205.71 20.91C205.15 19.86 204.38 19.0433 203.4 18.46C202.42 17.8767 201.289 17.585 200.005 17.585C198.745 17.585 197.614 17.8767 196.61 18.46C195.607 19.0433 194.825 19.86 194.265 20.91C193.705 21.96 193.425 23.1617 193.425 24.515V24.9C193.425 26.3 193.729 27.5367 194.335 28.61C194.965 29.66 195.829 30.4883 196.925 31.095C198.045 31.6783 199.317 31.97 200.74 31.97C201.86 31.97 202.899 31.7717 203.855 31.375C204.835 30.9783 205.675 30.3717 206.375 29.555L207.775 31.165C206.959 32.145 205.932 32.8917 204.695 33.405C203.482 33.9183 202.14 34.175 200.67 34.175ZM221.583 34.175C220.02 34.175 218.655 33.8833 217.488 33.3C216.322 32.7167 215.412 31.8417 214.758 30.675C214.128 29.5083 213.813 28.05 213.813 26.3V15.625H216.298V26.02C216.298 27.98 216.777 29.4617 217.733 30.465C218.713 31.445 220.078 31.935 221.828 31.935C223.112 31.935 224.22 31.6783 225.153 31.165C226.11 30.6283 226.833 29.8583 227.323 28.855C227.837 27.8517 228.093 26.65 228.093 25.25V15.625L230.578 15.625V34H228.198V28.96L228.583 29.87C228 31.2233 227.09 32.285 225.853 33.055C224.64 33.8017 223.217 34.175 221.583 34.175ZM246.884 15.45C248.377 15.45 249.684 15.7417 250.804 16.325C251.947 16.885 252.834 17.7483 253.464 18.915C254.117 20.0817 254.444 21.5517 254.444 23.325V34H251.959V23.57C251.959 21.6333 251.469 20.175 250.489 19.195C249.532 18.1917 248.179 17.69 246.429 17.69C245.122 17.69 243.979 17.9583 242.999 18.495C242.042 19.0083 241.296 19.7667 240.759 20.77C240.246 21.75 239.989 22.94 239.989 24.34V34H237.504V15.625L239.884 15.625V20.665L239.499 19.72C240.082 18.39 241.016 17.3517 242.299 16.605C243.582 15.835 245.111 15.45 246.884 15.45ZM268.471 34.175C266.721 34.175 265.146 33.7783 263.746 32.985C262.37 32.1917 261.285 31.095 260.491 29.695C259.698 28.2717 259.301 26.6383 259.301 24.795C259.301 22.9283 259.698 21.295 260.491 19.895C261.285 18.495 262.37 17.41 263.746 16.64C265.146 15.8467 266.721 15.45 268.471 15.45C270.081 15.45 271.516 15.8117 272.776 16.535C274.06 17.2583 275.075 18.32 275.821 19.72C276.591 21.0967 276.976 22.7883 276.976 24.795C276.976 26.7783 276.603 28.47 275.856 29.87C275.11 31.27 274.095 32.3433 272.811 33.09C271.551 33.8133 270.105 34.175 268.471 34.175ZM268.646 31.97C269.953 31.97 271.12 31.6783 272.146 31.095C273.196 30.4883 274.013 29.6483 274.596 28.575C275.203 27.4783 275.506 26.2183 275.506 24.795C275.506 23.3483 275.203 22.0883 274.596 21.015C274.013 19.9417 273.196 19.1133 272.146 18.53C271.12 17.9233 269.953 17.62 268.646 17.62C267.363 17.62 266.208 17.9233 265.181 18.53C264.155 19.1133 263.338 19.9417 262.731 21.015C262.125 22.0883 261.821 23.3483 261.821 24.795C261.821 26.2183 262.125 27.4783 262.731 28.575C263.338 29.6483 264.155 30.4883 265.181 31.095C266.208 31.6783 267.363 31.97 268.646 31.97ZM275.576 34V28.47L275.821 24.76L275.471 21.05V8.03H277.956V34L275.576 34ZM292.682 34.175C290.769 34.175 289.089 33.7783 287.642 32.985C286.195 32.1683 285.064 31.06 284.247 29.66C283.43 28.2367 283.022 26.615 283.022 24.795C283.022 22.975 283.407 21.365 284.177 19.965C284.97 18.565 286.044 17.4683 287.397 16.675C288.774 15.8583 290.314 15.45 292.017 15.45C293.744 15.45 295.272 15.8467 296.602 16.64C297.955 17.41 299.017 18.5067 299.787 19.93C300.557 21.33 300.942 22.9517 300.942 24.795C300.942 24.9117 300.93 25.04 300.907 25.18C300.907 25.2967 300.907 25.425 300.907 25.565L284.912 25.565V23.71L299.577 23.71L298.597 24.445C298.597 23.115 298.305 21.9367 297.722 20.91C297.162 19.86 296.392 19.0433 295.412 18.46C294.432 17.8767 293.3 17.585 292.017 17.585C290.757 17.585 289.625 17.8767 288.622 18.46C287.619 19.0433 286.837 19.86 286.277 20.91C285.717 21.96 285.437 23.1617 285.437 24.515V24.9C285.437 26.3 285.74 27.5367 286.347 28.61C286.977 29.66 287.84 30.4883 288.937 31.095C290.057 31.6783 291.329 31.97 292.752 31.97C293.872 31.97 294.91 31.7717 295.867 31.375C296.847 30.9783 297.687 30.3717 298.387 29.555L299.787 31.165C298.97 32.145 297.944 32.8917 296.707 33.405C295.494 33.9183 294.152 34.175 292.682 34.175Z" fill="white"/>
<path d="M25.9286 25.2713C25.9286 32.0266 20.4586 37.5001 13.7143 37.5001C6.97002 37.5001 1.5 32.0266 1.5 25.2713C1.5 18.516 6.97002 13.0425 13.7143 13.0425C20.4586 13.0425 25.9286 18.516 25.9286 25.2713Z" stroke="white" stroke-width="3"/>
<path d="M62.5 25.2713C62.5 32.0266 57.03 37.5001 50.2857 37.5001C43.5414 37.5001 38.0714 32.0266 38.0714 25.2713C38.0714 18.516 43.5414 13.0425 50.2857 13.0425C57.03 13.0425 62.5 18.516 62.5 25.2713Z" stroke="white" stroke-width="3"/>
<path d="M44.4952 3L37.7905 9.71186" stroke="white" stroke-width="3" stroke-linecap="round"/>
<path d="M27.4285 9.71191L37.7904 9.71191" stroke="white" stroke-width="3" stroke-linecap="round"/>
</svg>
