<svg width="32" height="32" viewBox="0 0 32 32" fill="none" xmlns="http://www.w3.org/2000/svg">
<rect x="1" y="1" width="30" height="30" rx="15" stroke="white" stroke-width="2"/>
<path d="M19.9406 17.451C19.523 17.0387 19.0016 17.0387 18.5867 17.451C18.2701 17.7649 17.9536 18.0787 17.6423 18.3979C17.5572 18.4857 17.4854 18.5043 17.3816 18.4458C17.1768 18.3341 16.9587 18.2437 16.7619 18.1213C15.8441 17.5441 15.0754 16.802 14.3944 15.9667C14.0566 15.5518 13.756 15.1076 13.5459 14.6075C13.5033 14.5064 13.5113 14.4399 13.5937 14.3574C13.9103 14.0515 14.2188 13.7377 14.5301 13.4238C14.9637 12.9875 14.9637 12.4768 14.5274 12.0379C14.28 11.7879 14.0326 11.5432 13.7853 11.2931C13.5299 11.0378 13.2772 10.7798 13.0192 10.5271C12.6015 10.1201 12.0802 10.1201 11.6652 10.5297C11.346 10.8436 11.0401 11.1655 10.7156 11.474C10.415 11.7586 10.2634 12.1071 10.2314 12.5141C10.1809 13.1764 10.3432 13.8015 10.5719 14.4106C11.0401 15.6715 11.753 16.7913 12.6175 17.8181C13.7853 19.2066 15.1791 20.3052 16.8097 21.0978C17.5439 21.4543 18.3047 21.7282 19.132 21.7735C19.7012 21.8054 20.196 21.6617 20.5923 21.2175C20.8637 20.9143 21.1696 20.6376 21.4568 20.3477C21.8825 19.9168 21.8851 19.3954 21.4622 18.9698C20.9568 18.4618 20.4487 17.9564 19.9406 17.451Z" fill="white"/>
</svg>
