<svg width="32" height="33" viewBox="0 0 32 33" fill="none" xmlns="http://www.w3.org/2000/svg">
<g clip-path="url(#clip0_42_226)">
<path d="M26.5013 8.46448C26.3874 8.03757 26.1561 7.5827 25.985 7.18444C23.9374 2.26355 19.4634 0.5 15.8509 0.5C11.0149 0.5 5.68858 3.74275 4.97748 10.4268V11.7924C4.97748 11.8494 4.99712 12.3613 5.02502 12.6174C5.42365 15.8029 7.93721 19.1883 9.81445 22.3738C11.8341 25.7867 13.9297 29.144 16.006 32.4999C17.2863 30.3099 18.5619 28.0911 19.813 25.9578C20.154 25.3317 20.5498 24.706 20.8911 24.1085C21.1186 23.7106 21.5533 23.3127 21.7518 22.9425C23.7714 19.2449 27.0221 15.5188 27.0221 11.8493V10.3419C27.0222 9.94405 26.529 8.55026 26.5013 8.46448ZM15.9394 15.3197C14.5179 15.3197 12.9619 14.6089 12.1939 12.6459C12.0794 12.3334 12.0887 11.7072 12.0887 11.6499V10.7681C12.0887 8.26561 14.2135 7.1276 16.062 7.1276C18.3377 7.1276 20.0978 8.94829 20.0978 11.224C20.0978 13.4996 18.2151 15.3197 15.9394 15.3197Z" fill="white"/>
</g>
<defs>
<clipPath id="clip0_42_226">
<rect width="32" height="32" fill="white" transform="matrix(-1 0 0 1 32 0.5)"/>
</clipPath>
</defs>
</svg>
